<?xml version="1.0" encoding="UTF-8"?>
<svg width="100%" height="100%" viewBox="100 0 1000 800" fill="none" xmlns="http://www.w3.org/2000/svg" preserveAspectRatio="xMidYMid meet">
  <style>
    /* Base styles */
    text {
      font-family: 'Rubik', system-ui, sans-serif;
      fill: #2e3440;
    }
    .title {
      font-size: 26px;
      font-weight: 600;
    }
    .subtitle {
      font-size: 20px;
      font-weight: 500;
    }
    .label {
      font-size: 16px;
      font-weight: 500;
    }
    .small-label {
      font-size: 14px;
    }
    
    /* Box styles */
    .box {
      stroke-width: 1.5;
      rx: 6;
      ry: 6;
    }
    .layer-box {
      fill: white;
      stroke: #e5e7eb;
      stroke-width: 2;
      rx: 8;
      ry: 8;
    }
    .component-box {
      fill: #f9fafb;
      stroke: #e5e7eb;
    }
    .subcomponent-box {
      fill: white;
      stroke: #e5e7eb;
      stroke-dasharray: none;
    }
    
    /* Color coding for layers */
    .client-layer {
      stroke: #4CAF50;
    }
    .query-layer {
      stroke: #2196F3;
    }
    .storage-layer {
      stroke: #9C27B0;
    }
    
    /* Connector styles */
    .connector {
      stroke: #4c566a;
      stroke-width: 1.5;
      fill: none;
      marker-end: url(#arrowhead);
    }
    .data-flow {
      stroke: #0f7d3c;
      stroke-width: 2;
      stroke-dasharray: 6 3;
    }
    
    /* Dark mode styles */
    [data-theme="dark"] .layer-box {
      fill: #1e1e1e;
      stroke: #4a4a4a;
    }
    [data-theme="dark"] .component-box {
      fill: #2d2d2d;
      stroke: #4a4a4a;
    }
    [data-theme="dark"] .subcomponent-box {
      fill: #1e1e1e;
      stroke: #4a4a4a;
    }
    [data-theme="dark"] text {
      fill: #eceff4;
    }
    [data-theme="dark"] .connector {
      stroke: #d8dee9;
    }
    [data-theme="dark"] .data-flow {
      stroke: #4ade80;
    }
    [data-theme="dark"] #arrowhead-dark {
      fill: #d8dee9;
      stroke: none;
    }
    [data-theme="dark"] .client-layer {
      stroke: #6ece73;
    }
    [data-theme="dark"] .query-layer {
      stroke: #61afef;
    }
    [data-theme="dark"] .storage-layer {
      stroke: #c678dd;
    }
    [data-theme="dark"] .row-block {
      fill: #3e4452;
      stroke: #61afef;
    }
    [data-theme="dark"] .tx-block {
      fill: #2d3343;
      stroke: #4a4a4a;
    }
    [data-theme="dark"] .subcomponent-box {
      fill: #1e1e1e;
      stroke: #4a4a4a;
    }
    [data-theme="dark"] .HTAP-indicator {
      background-color: rgba(42, 158, 105, 0.2);
      color: #eceff4;
    }
  </style>
  
  <!-- Arrow marker definition -->
  <defs>
    <marker id="arrowhead" markerWidth="10" markerHeight="7" refX="8" refY="3.5" orient="auto">
      <polygon points="0 0, 10 3.5, 0 7" fill="#4c566a" />
    </marker>
    <marker id="arrowhead-dark" markerWidth="10" markerHeight="7" refX="8" refY="3.5" orient="auto">
      <polygon points="0 0, 10 3.5, 0 7" fill="#d8dee9" />
    </marker>
  </defs>
  
  <!-- Title -->
  <text x="600" y="50" text-anchor="middle" class="title">Stoolap HTAP Architecture</text>
  
  <!-- Client Interface Layer -->
  <rect x="150" y="90" width="900" height="120" class="layer-box client-layer" />
  <text x="190" y="125" class="subtitle">Client Interface</text>
  
  <!-- Client Interface Components -->
  <rect x="220" y="140" width="220" height="50" class="box component-box" />
  <text x="330" y="170" text-anchor="middle" class="label">SQL Driver</text>
  
  <rect x="490" y="140" width="220" height="50" class="box component-box" />
  <text x="600" y="170" text-anchor="middle" class="label">CLI</text>
  
  <rect x="760" y="140" width="220" height="50" class="box component-box" />
  <text x="870" y="170" text-anchor="middle" class="label">API</text>
  
  <!-- Query Processing Layer -->
  <rect x="150" y="250" width="900" height="180" class="layer-box query-layer" />
  <text x="190" y="285" class="subtitle">Query Processing</text>
  
  <!-- Query Processing Components -->
  <rect x="220" y="300" width="220" height="110" class="box component-box" />
  <text x="330" y="325" text-anchor="middle" class="label">Parser</text>
  <rect x="240" y="335" width="80" height="30" class="box subcomponent-box" rx="4" ry="4" />
  <text x="280" y="355" text-anchor="middle" class="small-label">Lexer</text>
  <rect x="340" y="335" width="80" height="30" class="box subcomponent-box" rx="4" ry="4" />
  <text x="380" y="355" text-anchor="middle" class="small-label">AST</text>
  <rect x="290" y="375" width="80" height="30" class="box subcomponent-box" rx="4" ry="4" />
  <text x="330" y="395" text-anchor="middle" class="small-label">Syntax</text>
  
  <rect x="490" y="300" width="220" height="110" class="box component-box" />
  <text x="600" y="325" text-anchor="middle" class="label">Optimizer</text>
  <rect x="510" y="335" width="80" height="30" class="box subcomponent-box" rx="4" ry="4" />
  <text x="550" y="355" text-anchor="middle" class="small-label">Plan</text>
  <rect x="610" y="335" width="80" height="30" class="box subcomponent-box" rx="4" ry="4" />
  <text x="650" y="355" text-anchor="middle" class="small-label">Stats</text>
  <rect x="560" y="375" width="80" height="30" class="box subcomponent-box" rx="4" ry="4" />
  <text x="600" y="395" text-anchor="middle" class="small-label">Expression</text>
  
  <rect x="760" y="300" width="220" height="110" class="box component-box" />
  <text x="870" y="325" text-anchor="middle" class="label">Executor</text>
  <rect x="780" y="335" width="80" height="30" class="box subcomponent-box" rx="4" ry="4" />
  <text x="820" y="355" text-anchor="middle" class="small-label">Standard</text>
  <rect x="880" y="335" width="80" height="30" class="box subcomponent-box" rx="4" ry="4" />
  <text x="920" y="355" text-anchor="middle" class="small-label">Vectorized</text>
  <rect x="830" y="375" width="80" height="30" class="box subcomponent-box" rx="4" ry="4" />
  <text x="870" y="395" text-anchor="middle" class="small-label">Cache</text>
  
  <!-- Storage Engine Layer -->
  <rect x="150" y="470" width="900" height="220" class="layer-box storage-layer" />
  <text x="190" y="505" class="subtitle">Storage Engine</text>
  
  <!-- Storage Engine Components -->
  <rect x="220" y="520" width="220" height="150" class="box component-box" />
  <text x="330" y="545" text-anchor="middle" class="label">MVCC Engine</text>
  <rect x="240" y="555" width="80" height="30" class="box subcomponent-box" rx="4" ry="4" />
  <text x="280" y="575" text-anchor="middle" class="small-label">Transaction</text>
  <rect x="340" y="555" width="80" height="30" class="box subcomponent-box" rx="4" ry="4" />
  <text x="380" y="575" text-anchor="middle" class="small-label">Version</text>
  <rect x="240" y="595" width="80" height="30" class="box subcomponent-box" rx="4" ry="4" />
  <text x="280" y="615" text-anchor="middle" class="small-label">WAL</text>
  <rect x="340" y="595" width="80" height="30" class="box subcomponent-box" rx="4" ry="4" />
  <text x="380" y="615" text-anchor="middle" class="small-label">Registry</text>
  <rect x="290" y="635" width="80" height="30" class="box subcomponent-box" rx="4" ry="4" />
  <text x="330" y="655" text-anchor="middle" class="small-label">Scanner</text>
  
  <rect x="490" y="520" width="220" height="150" class="box component-box" />
  <text x="600" y="545" text-anchor="middle" class="label">Row-Based Storage</text>
  
  <!-- Row-Based Storage Detail -->
  <rect x="552" y="565" width="152" height="95" stroke="#c1c6cd" stroke-width="1" fill="#fafbfc" rx="4" ry="4" class="subcomponent-box"/>
  <text x="625" y="585" text-anchor="middle" font-size="13" font-weight="500">Row-Based Data</text>
  
  <!-- Row blocks visualization -->
  <rect x="562" y="593" width="132" height="18" fill="#e5e9ee" stroke="#2196F3" stroke-width="1" rx="2" ry="2" class="row-block"/>
  <rect x="567" y="597" width="122" height="10" fill="#d8dee9" stroke="#4c566a" stroke-width="0.5" rx="1" ry="1" class="tx-block"/>
  
  <rect x="562" y="613" width="132" height="18" fill="#e5e9ee" stroke="#2196F3" stroke-width="1" rx="2" ry="2" class="row-block"/>
  <rect x="567" y="617" width="122" height="10" fill="#d8dee9" stroke="#4c566a" stroke-width="0.5" rx="1" ry="1" class="tx-block"/>
  
  <rect x="562" y="633" width="132" height="18" fill="#e5e9ee" stroke="#2196F3" stroke-width="1" rx="2" ry="2" class="row-block"/>
  <rect x="567" y="637" width="122" height="10" fill="#d8dee9" stroke="#4c566a" stroke-width="0.5" rx="1" ry="1" class="tx-block"/>
  
  <rect x="505" y="595" width="37" height="25" class="box subcomponent-box" rx="4" ry="4" />
  <text x="523" y="612" text-anchor="middle" class="small-label">Disk</text>
  
  <rect x="505" y="635" width="37" height="25" class="box subcomponent-box" rx="4" ry="4" />
  <text x="523" y="652" text-anchor="middle" class="small-label">Mem</text>
    
  <rect x="760" y="520" width="220" height="150" class="box component-box" />
  <text x="870" y="545" text-anchor="middle" class="label">Columnar Indexing</text>
  <rect x="780" y="555" width="80" height="30" class="box subcomponent-box" rx="4" ry="4" />
  <text x="820" y="575" text-anchor="middle" class="small-label">B-tree</text>
  <rect x="880" y="555" width="80" height="30" class="box subcomponent-box" rx="4" ry="4" />
  <text x="920" y="575" text-anchor="middle" class="small-label">Bitmap</text>
  <rect x="780" y="595" width="80" height="30" class="box subcomponent-box" rx="4" ry="4" />
  <text x="820" y="615" text-anchor="middle" class="small-label">Column</text>
  <rect x="880" y="595" width="80" height="30" class="box subcomponent-box" rx="4" ry="4" />
  <text x="920" y="615" text-anchor="middle" class="small-label">Expression</text>
  <rect x="830" y="635" width="80" height="30" class="box subcomponent-box" rx="4" ry="4" />
  <text x="870" y="655" text-anchor="middle" class="small-label">Multi-Col</text>
  
  <!-- Supporting Components -->
  <rect x="150" y="720" width="900" height="60" stroke="#e5e7eb" stroke-width="1.5" fill="none" rx="6" ry="6"/>
  
  <rect x="220" y="735" width="220" height="30" class="box component-box" rx="4" ry="4" />
  <text x="330" y="755" text-anchor="middle" class="label">Memory Management</text>
  
  <rect x="490" y="735" width="220" height="30" class="box component-box" rx="4" ry="4" />
  <text x="600" y="755" text-anchor="middle" class="label">Compression</text>
  
  <rect x="760" y="735" width="220" height="30" class="box component-box" rx="4" ry="4" />
  <text x="870" y="755" text-anchor="middle" class="label">Function Registry</text>
  
  <!-- Connection Lines -->
  <!-- From client to query layer -->
  <path d="M330 190 L330 300" class="connector" />
  <path d="M600 190 L600 300" class="connector" />
  <path d="M870 190 L870 300" class="connector" />
  
  <!-- Between query components -->
  <path d="M440 350 L490 350" class="connector" />
  <path d="M710 350 L760 350" class="connector" />
  
  <!-- From query to storage layer -->
  <path d="M330 410 L330 520" class="connector" />
  <path d="M600 410 L600 520" class="connector" />
  <path d="M870 410 L870 520" class="connector" />
  
  <!-- Return path (results) -->
  <path d="M870 300 C950 300, 970 220, 870 220 L600 220 L330 220" class="connector data-flow" />
  
  <!-- Between storage components -->
  <path d="M440 595 L490 595" class="connector" />
  <path d="M710 595 L760 595" class="connector" />
  
  <!-- Supporting layer connections -->
  <path d="M330 670 L330 735" class="connector" />
  <path d="M600 670 L600 735" class="connector" />
  <path d="M870 670 L870 735" class="connector" />
    
  <!-- SVG theme handling logic -->
  <style>
    [data-theme="dark"] .connector {
      marker-end: url(#arrowhead-dark);
    }
    
    [data-theme="light"] .connector, .connector {
      marker-end: url(#arrowhead);
    }
  </style>
</svg>
