<?xml version="1.0" encoding="UTF-8"?>
<svg width="100%" height="100%" viewBox="0 0 1200 600" version="1.1" xmlns="http://www.w3.org/2000/svg">
  <defs>
    <!-- Gradient definitions -->
    <linearGradient id="bgGradient" x1="0%" y1="0%" x2="100%" y2="100%">
      <stop offset="0%" stop-color="#0c2436" />
      <stop offset="100%" stop-color="#10304a" />
    </linearGradient>
    
    <!-- Particle gradients -->
    <radialGradient id="particleGradient1" cx="50%" cy="50%" r="50%" fx="50%" fy="50%">
      <stop offset="0%" stop-color="rgba(42, 158, 105, 0.7)" />
      <stop offset="70%" stop-color="rgba(42, 158, 105, 0)" />
    </radialGradient>
    
    <radialGradient id="particleGradient2" cx="50%" cy="50%" r="50%" fx="50%" fy="50%">
      <stop offset="0%" stop-color="rgba(176, 212, 91, 0.7)" />
      <stop offset="70%" stop-color="rgba(176, 212, 91, 0)" />
    </radialGradient>
    
    <!-- Database icon gradients -->
    <linearGradient id="dbGradient" x1="0%" y1="0%" x2="100%" y2="100%">
      <stop offset="0%" stop-color="#2a9e69" />
      <stop offset="100%" stop-color="#95b746" />
    </linearGradient>
    
    <!-- Grid pattern -->
    <pattern id="gridPattern" width="20" height="20" patternUnits="userSpaceOnUse">
      <path d="M 20 0 L 0 0 0 20" fill="none" stroke="rgba(255, 255, 255, 0.03)" stroke-width="1"/>
    </pattern>
    
    <!-- Hexagon pattern -->
    <pattern id="hexPattern" width="50" height="86.6" patternUnits="userSpaceOnUse" patternTransform="scale(0.5)">
      <polygon points="25,0 50,14.4 50,43.3 25,57.7 0,43.3 0,14.4" fill="none" stroke="rgba(42, 158, 105, 0.1)" stroke-width="1"/>
      <polygon points="25,57.7 50,72.1 50,101 25,115.4 0,101 0,72.1" fill="none" stroke="rgba(42, 158, 105, 0.1)" stroke-width="1"/>
      <polygon points="75,28.8 100,43.3 100,72.1 75,86.6 50,72.1 50,43.3" fill="none" stroke="rgba(42, 158, 105, 0.1)" stroke-width="1"/>
    </pattern>
    
    <!-- Animation paths -->
    <path id="particlePath1" d="M0,0 C20,20 -10,40 10,60 C30,80 -20,70 0,0 Z" fill="none" />
    <path id="particlePath2" d="M0,0 C-20,-20 10,-40 -10,-60 C-30,-30 20,-10 0,0 Z" fill="none" />
    <path id="particlePath3" d="M0,0 C30,10 -20,40 10,30 C-20,60 0,40 0,0 Z" fill="none" />
    
    <!-- Filters -->
    <filter id="particleBlur" x="-50%" y="-50%" width="200%" height="200%">
      <feGaussianBlur in="SourceGraphic" stdDeviation="5" />
    </filter>
    
    <!-- Database icon -->
    <symbol id="dbIcon" viewBox="0 0 100 100">
      <ellipse cx="50" cy="20" rx="40" ry="15" fill="rgba(42, 158, 105, 0.3)" stroke="rgba(42, 158, 105, 0.6)" stroke-width="2"/>
      <path d="M90,20 L90,80 C90,88.3 72.1,95 50,95 C27.9,95 10,88.3 10,80 L10,20" fill="none" stroke="rgba(42, 158, 105, 0.6)" stroke-width="2"/>
      <ellipse cx="50" cy="80" rx="40" ry="15" fill="rgba(42, 158, 105, 0.3)" stroke="rgba(42, 158, 105, 0.6)" stroke-width="2"/>
      <ellipse cx="50" cy="50" rx="40" ry="15" fill="rgba(42, 158, 105, 0.3)" stroke="rgba(42, 158, 105, 0.6)" stroke-width="2"/>
    </symbol>
    
    <!-- Code icon -->
    <symbol id="codeIcon" viewBox="0 0 100 100">
      <path d="M30,30 L10,50 L30,70" fill="none" stroke="rgba(176, 212, 91, 0.6)" stroke-width="3" stroke-linecap="round" stroke-linejoin="round"/>
      <path d="M70,30 L90,50 L70,70" fill="none" stroke="rgba(176, 212, 91, 0.6)" stroke-width="3" stroke-linecap="round" stroke-linejoin="round"/>
      <path d="M40,80 L60,20" fill="none" stroke="rgba(176, 212, 91, 0.6)" stroke-width="3" stroke-linecap="round" stroke-linejoin="round"/>
    </symbol>
  </defs>
  
  <!-- Background -->
  <rect width="100%" height="100%" fill="url(#bgGradient)" />
  
  <!-- Patterns -->
  <rect width="100%" height="100%" fill="url(#gridPattern)" />
  <rect width="100%" height="100%" fill="url(#hexPattern)" />
  
  <!-- Semi-transparent accent shapes -->
  <circle cx="10%" cy="30%" r="200" fill="rgba(42, 158, 105, 0.03)" />
  <circle cx="85%" cy="60%" r="250" fill="rgba(176, 212, 91, 0.03)" />
  <circle cx="50%" cy="90%" r="300" fill="rgba(42, 158, 105, 0.02)" />
  
  <!-- Particles with animation -->
  <g id="particles">
    <!-- Particle 1 -->
    <circle class="particle" cx="150" cy="120" r="50" fill="url(#particleGradient1)" filter="url(#particleBlur)">
      <animateMotion 
        path="M0,0 C20,20 -10,40 10,60 C30,80 -20,70 0,0 Z" 
        dur="18s" 
        repeatCount="indefinite" />
    </circle>
    
    <!-- Particle 2 -->
    <circle class="particle" cx="250" cy="300" r="70" fill="url(#particleGradient2)" filter="url(#particleBlur)">
      <animateMotion 
        path="M0,0 C-20,-20 10,-40 -10,-60 C-30,-30 20,-10 0,0 Z" 
        dur="22s" 
        repeatCount="indefinite" />
    </circle>
    
    <!-- Particle 3 -->
    <circle class="particle" cx="900" cy="240" r="40" fill="url(#particleGradient1)" filter="url(#particleBlur)">
      <animateMotion 
        path="M0,0 C30,10 -20,40 10,30 C-20,60 0,40 0,0 Z" 
        dur="20s" 
        repeatCount="indefinite" />
    </circle>
    
    <!-- Particle 4 -->
    <circle class="particle" cx="1000" cy="100" r="60" fill="url(#particleGradient2)" filter="url(#particleBlur)">
      <animateMotion 
        path="M0,0 C-15,20 -30,-10 -15,-30 C0,-50 10,-10 0,0 Z" 
        dur="24s" 
        repeatCount="indefinite" />
    </circle>
    
    <!-- Particle 5 -->
    <circle class="particle" cx="900" cy="450" r="35" fill="url(#particleGradient1)" filter="url(#particleBlur)">
      <animateMotion 
        path="M0,0 C15,-15 30,10 15,30 C0,50 -10,10 0,0 Z" 
        dur="15s" 
        repeatCount="indefinite" />
    </circle>
    
    <!-- Particle 6 -->
    <circle class="particle" cx="1100" cy="400" r="65" fill="url(#particleGradient2)" filter="url(#particleBlur)">
      <animateMotion 
        path="M0,0 C-20,10 -10,-30 10,-20 C30,-10 10,20 0,0 Z" 
        dur="19s" 
        repeatCount="indefinite" />
    </circle>
  </g>
  
  <!-- Database icons -->
  <use href="#dbIcon" x="800" y="100" width="50" height="50" opacity="0.5">
    <animateTransform 
      attributeName="transform" 
      type="translate" 
      values="0,0; 0,10; 0,0" 
      dur="6s" 
      repeatCount="indefinite" />
  </use>
  
  <use href="#dbIcon" x="900" y="350" width="40" height="40" opacity="0.3">
    <animateTransform 
      attributeName="transform" 
      type="translate" 
      values="0,0; 0,-8; 0,0" 
      dur="7s" 
      repeatCount="indefinite" />
  </use>
  
  <!-- Code icons -->
  <use href="#codeIcon" x="700" y="250" width="45" height="45" opacity="0.4">
    <animateTransform 
      attributeName="transform" 
      type="translate" 
      values="0,0; 5,8; 0,0" 
      dur="8s" 
      repeatCount="indefinite" />
  </use>
  
  <use href="#codeIcon" x="950" y="180" width="35" height="35" opacity="0.3">
    <animateTransform 
      attributeName="transform" 
      type="translate" 
      values="0,0; -5,5; 0,0" 
      dur="9s" 
      repeatCount="indefinite" />
  </use>
  
  <!-- Subtle animated lines -->
  <path d="M700,150 Q800,100 900,200" stroke="rgba(42, 158, 105, 0.2)" stroke-width="1" fill="none">
    <animate 
      attributeName="d" 
      values="M700,150 Q800,100 900,200; M700,150 Q800,200 900,200; M700,150 Q800,100 900,200" 
      dur="10s" 
      repeatCount="indefinite" />
  </path>
  
  <path d="M750,380 Q850,300 950,350" stroke="rgba(176, 212, 91, 0.2)" stroke-width="1" fill="none">
    <animate 
      attributeName="d" 
      values="M750,380 Q850,300 950,350; M750,380 Q850,350 950,350; M750,380 Q850,300 950,350" 
      dur="12s" 
      repeatCount="indefinite" />
  </path>
  
  <path d="M800,250 Q880,280 950,230" stroke="rgba(42, 158, 105, 0.15)" stroke-width="1" fill="none">
    <animate 
      attributeName="d" 
      values="M800,250 Q880,280 950,230; M800,250 Q880,230 950,230; M800,250 Q880,280 950,230" 
      dur="14s" 
      repeatCount="indefinite" />
  </path>
</svg>