<?xml version="1.0" encoding="UTF-8" standalone="no"?>
<!DOCTYPE svg PUBLIC "-//W3C//DTD SVG 1.1//EN" "http://www.w3.org/Graphics/SVG/1.1/DTD/svg11.dtd">
<svg height="314.13264410603733pt" version="1.1" viewBox="0 0 1059.52 314.133" width="1059.521376289722pt" xml:space="preserve" xmlns="http://www.w3.org/2000/svg" xmlns:xlink="http://www.w3.org/1999/xlink">
<style>
    @media (prefers-color-scheme: dark) {
        .ft1 {
            fill: #ffffff;
        }
         .ft2 {
            fill: #95b746;
        }
    }
    @media (prefers-color-scheme: light) {
        .ft1 {
            fill: #000000;
        }
        .ft2 {
            fill: #0b4328;
        }
    }
</style>
<defs>
<radialGradient cx="0" cy="0" gradientTransform="matrix(251.841 4.50141e-14 -7.90388e-15 251.841 2.84217e-14 174.548)" gradientUnits="userSpaceOnUse" id="RadialGradient" r="1">
<stop offset="0" stop-color="#406021"/>
<stop offset="0.451902" stop-color="#659833"/>
<stop offset="0.572113" stop-color="#659833"/>
<stop offset="1" stop-color="#406021"/>
</radialGradient>
<linearGradient gradientTransform="matrix(160.388 0 0 160.388 43.9845 247.221)" gradientUnits="userSpaceOnUse" id="LinearGradient" x1="0" x2="1" y1="0" y2="0">
<stop offset="0" stop-color="#0b4328"/>
<stop offset="0.451028" stop-color="#207e53"/>
<stop offset="0.572707" stop-color="#207e53"/>
<stop offset="1" stop-color="#0b4328"/>
</linearGradient>
</defs>
<g>
<path d="M0.935153 81.5C0.935115 81.5-0.49953 182.288 0.185153 233.594C0.454481 253.779 21.582 260.187 36.1539 267.75C36.3077 235.996 35.978 204.217 36.6227 172.469C36.6852 169.386 38.995 168.359 41.5289 169.813C63.154 182.219 83.518 196.87 105.716 208.219C111.548 211.2 118.355 212.546 124.904 212.438C131.468 212.329 138.121 210.489 143.998 207.563C167.108 196.052 188.915 182.112 211.373 169.375C211.373 218.603 211.373 218.585 211.373 267.813C221.253 264.953 245.715 255.013 246.81 242.875C249.322 215.039 251.841 81.2825 251.841 81.2825L140.06 147.375C129.544 153.282 112.101 151.135 101.81 144.844L0.935153 81.5Z" fill="url(#RadialGradient)"/>
<path d="M123.279 7.06424e-06C116.633 0.00408561 109.996 1.78798 104.091 5.34376L11.3531 64.0602C2.79004 69.2159 4.26326e-14 72.1506 0.844292 82.8665C0.844292 82.8665 41.8255 107.255 41.8255 107.255C41.8872 107.146 41.1809 106.394 41.2463 106.287C32.152 97.2891 63.4305 86.1372 68.3727 84.0313C88.8395 75.3099 103.375 105.843 121.716 108.875C141.702 112.179 151.312 83.6783 170.248 82.8438C180.49 82.3924 191.109 88.9848 198.904 94.8125C201.418 96.6925 206.628 101.757 207.512 106.114C207.593 107.261 207.218 107.653 207.383 107.885L251.841 81.5C251.841 72.1857 249.841 69.9664 240.091 63.9375C240.091 63.9375 142.466 5.31251 142.466 5.31251C136.557 1.76396 129.925-0.00407848 123.279 7.06424e-06ZM125.904 48.75C134.088 49.082 141.646 57.9857 148.841 62.875C162.103 71.8863 139.715 81.0606 133.81 84.625C121.778 91.8878 113.8 85.9275 102.904 78.6875C83.4938 65.7907 107.037 53.5054 122.341 49.1563C123.537 48.8166 124.735 48.7026 125.904 48.75Z" fill="#95b746"/>
<path d="M106.708 215.508C120.673 220.288 134.133 219.908 146.699 212.855C164.121 203.077 181.163 193.621 198.384 183.484C199.768 182.669 200.909 181.211 202.901 181.549C204.725 183.204 204.343 185.487 204.332 187.57C204.194 215.051 203.957 241.532 203.878 269.014C203.869 272.311 202.5 274.04 199.772 275.668C183.471 285.393 167.1 295.02 151.105 305.233C133.841 316.257 116.967 317.532 99.2011 306.281C82.4635 295.68 65.2559 285.82 48.205 275.719C45.6976 274.233 44.2104 272.55 44.2074 269.438C44.1797 240.453 44.0554 211.467 43.9845 182.481C43.9834 182.035 44.3052 181.588 44.7956 180.309C51.4355 184.005 57.9306 187.555 64.3618 191.216C78.392 199.203 91.697 208.452 106.708 215.508M84.3917 268.199C86.3319 267.045 87.6851 265.464 88.1449 263.187C89.7102 255.438 81.8709 245.372 73.9688 245.164C69.7775 245.054 66.9821 247.226 66.016 251.282C63.8524 260.364 74.6416 270.818 84.3917 268.199Z" fill="url(#LinearGradient)"/>
</g>
<g>
<path d="M375.821 89.2663C368.021 78.2663 358.121 72.7663 346.121 72.7663C338.521 72.7663 332.121 75.0663 326.921 79.6663C321.721 84.2663 319.121 90.4163 319.121 98.1163C319.121 105.816 328.571 114.966 347.471 125.566C366.371 136.166 375.921 141.466 376.121 141.466C389.521 151.466 396.221 163.266 396.221 176.866C396.221 195.466 390.871 210.516 380.171 222.016C369.471 233.516 354.821 239.266 336.221 239.266C312.621 239.266 294.021 227.466 280.421 203.866L299.921 184.666C302.521 191.666 307.321 198.066 314.321 203.866C321.321 209.666 328.521 212.566 335.921 212.566C344.721 212.566 351.671 209.566 356.771 203.566C361.871 197.566 364.421 190.266 364.421 181.666C364.421 175.466 362.521 170.016 358.721 165.316C354.921 160.616 342.071 153.416 320.171 143.716C298.271 134.016 287.321 120.166 287.321 102.166C287.321 86.7663 292.371 73.8163 302.471 63.3163C312.571 52.8163 325.221 47.5663 340.421 47.5663C361.421 47.5663 378.021 54.3663 390.221 67.9663L375.821 89.2663Z" class="ft1"/>
<path d="M449.321 234.466L420.221 234.466L420.221 142.066L406.121 142.066L406.121 118.366L420.221 118.366L420.221 75.7663L449.321 75.7663L449.321 118.366L472.421 118.366L472.421 142.066L449.321 142.066L449.321 234.466Z" class="ft1"/>
<path d="M596.321 175.066C596.321 193.666 590.621 208.866 579.221 220.666C567.821 232.466 552.871 238.366 534.371 238.366C515.871 238.366 500.821 232.466 489.221 220.666C477.621 208.866 471.821 193.716 471.821 175.216C471.821 156.716 477.521 141.566 488.921 129.766C500.321 117.966 515.321 112.066 533.921 112.066C552.521 112.066 567.571 117.916 579.071 129.616C590.571 141.316 596.321 156.466 596.321 175.066ZM501.221 175.666C501.221 186.666 504.321 195.666 510.521 202.666C516.721 209.666 524.721 213.166 534.521 213.166C544.321 213.166 552.171 209.416 558.071 201.916C563.971 194.416 566.921 185.516 566.921 175.216C566.921 164.916 563.921 156.016 557.921 148.516C551.921 141.016 544.071 137.266 534.371 137.266C524.671 137.266 516.721 140.866 510.521 148.066C504.321 155.266 501.221 164.466 501.221 175.666Z" class="ft1"/>
<path d="M728.621 175.066C728.621 193.666 722.921 208.866 711.521 220.666C700.121 232.466 685.171 238.366 666.671 238.366C648.171 238.366 633.121 232.466 621.521 220.666C609.921 208.866 604.121 193.716 604.121 175.216C604.121 156.716 609.821 141.566 621.221 129.766C632.621 117.966 647.621 112.066 666.221 112.066C684.821 112.066 699.871 117.916 711.371 129.616C722.871 141.316 728.621 156.466 728.621 175.066ZM633.521 175.666C633.521 186.666 636.621 195.666 642.821 202.666C649.021 209.666 657.021 213.166 666.821 213.166C676.621 213.166 684.471 209.416 690.371 201.916C696.271 194.416 699.221 185.516 699.221 175.216C699.221 164.916 696.221 156.016 690.221 148.516C684.221 141.016 676.371 137.266 666.671 137.266C656.971 137.266 649.021 140.866 642.821 148.066C636.621 155.266 633.521 164.466 633.521 175.666Z" class="ft1"/>
<path d="M776.021 234.466L746.921 234.466L746.921 29.5663L776.021 29.5663L776.021 234.466Z" class="ft1"/>
<path d="M914.321 234.466L885.821 234.466L885.821 223.666C877.421 233.466 864.921 238.366 848.321 238.366C831.721 238.366 818.471 231.966 808.571 219.166C798.671 206.366 793.721 191.366 793.721 174.166C793.721 156.966 798.771 142.316 808.871 130.216C818.971 118.116 831.921 112.066 847.721 112.066C864.521 112.066 877.221 117.066 885.821 127.066L885.821 115.966L914.321 115.966L914.321 234.466ZM889.121 175.066C889.121 164.066 886.021 155.016 879.821 147.916C873.621 140.816 865.671 137.266 855.971 137.266C846.271 137.266 838.371 140.716 832.271 147.616C826.171 154.516 823.121 163.666 823.121 175.066C823.121 186.466 826.221 195.666 832.421 202.666C838.621 209.666 846.621 213.166 856.421 213.166C866.221 213.166 874.121 209.766 880.121 202.966C886.121 196.166 889.121 186.866 889.121 175.066Z" class="ft2"/>
<path d="M967.721 126.766C976.121 116.966 988.621 112.066 1005.22 112.066C1020.82 112.066 1033.77 118.266 1044.07 130.666C1054.37 143.066 1059.52 157.666 1059.52 174.466C1059.52 192.666 1054.42 207.866 1044.22 220.066C1034.02 232.266 1020.82 238.366 1004.62 238.366C987.221 238.366 975.121 233.366 968.321 223.366L967.721 284.566L938.621 284.566L938.621 115.966L967.721 115.966L967.721 126.766ZM1029.82 175.066C1029.82 164.866 1026.92 156.016 1021.12 148.516C1015.32 141.016 1007.32 137.266 997.121 137.266C987.721 137.266 979.921 141.066 973.721 148.666C967.521 156.266 964.421 165.016 964.421 174.916C964.421 184.816 967.721 193.666 974.321 201.466C980.921 209.266 988.521 213.166 997.121 213.166C1007.32 213.166 1015.32 209.566 1021.12 202.366C1026.92 195.166 1029.82 186.066 1029.82 175.066Z" class="ft1"/>
</g>
</svg>
