<?xml version="1.0" encoding="UTF-8"?>
<svg class="network-svg" xmlns="http://www.w3.org/2000/svg" viewBox="0 0 1000 500" preserveAspectRatio="xMidYMid slice">
    <defs>
        <linearGradient id="bgGradient" x1="0%" y1="0%" x2="100%" y2="100%">
            <stop offset="0%" stop-color="#1a273b" />
            <stop offset="100%" stop-color="#132238" />
        </linearGradient>
        <linearGradient id="lineGradient" x1="0%" y1="0%" x2="100%" y2="100%">
            <stop offset="0%" stop-color="#2a9e69" stop-opacity="0.2" />
            <stop offset="100%" stop-color="#2a9e69" stop-opacity="0.3" />
        </linearGradient>
        <linearGradient id="lineGradient2" x1="0%" y1="0%" x2="100%" y2="100%">
            <stop offset="0%" stop-color="#95b746" stop-opacity="0.2" />
            <stop offset="100%" stop-color="#95b746" stop-opacity="0.3" />
        </linearGradient>
    </defs>
    <rect width="100%" height="100%" fill="url(#bgGradient)" />
    
    <g class="network-elements">
        <!-- Grid lines -->
        <g class="grid-lines" stroke="rgba(255,255,255,0.05)" stroke-width="1">
            <line x1="0" y1="100" x2="1000" y2="100" />
            <line x1="0" y1="200" x2="1000" y2="200" />
            <line x1="0" y1="300" x2="1000" y2="300" />
            <line x1="0" y1="400" x2="1000" y2="400" />
            
            <line x1="200" y1="0" x2="200" y2="500" />
            <line x1="400" y1="0" x2="400" y2="500" />
            <line x1="600" y1="0" x2="600" y2="500" />
            <line x1="800" y1="0" x2="800" y2="500" />
        </g>
        
        <!-- Connection paths -->
        <g class="connections">
            <path d="M100,100 C200,150 300,50 400,200" fill="none" stroke="url(#lineGradient)" stroke-width="2" />
            <path d="M400,200 C500,300 600,200 700,250" fill="none" stroke="url(#lineGradient)" stroke-width="2" />
            <path d="M700,250 C800,300 900,350 950,400" fill="none" stroke="url(#lineGradient)" stroke-width="2" />
            <path d="M200,400 C300,350 400,300 500,350" fill="none" stroke="url(#lineGradient2)" stroke-width="2" />
            <path d="M500,350 C600,400 700,430 800,350" fill="none" stroke="url(#lineGradient2)" stroke-width="2" />
            <path d="M300,150 C400,100 500,200 600,150" fill="none" stroke="url(#lineGradient)" stroke-width="2" />
            <path d="M150,300 C250,250 350,300 450,250" fill="none" stroke="url(#lineGradient2)" stroke-width="2" />
            <path d="M450,250 C550,200 650,250 750,200" fill="none" stroke="url(#lineGradient2)" stroke-width="2" />
            <path d="M200,200 C300,150 400,250 500,200" fill="none" stroke="url(#lineGradient)" stroke-width="2" />
        </g>
        
        <!-- Static nodes -->
        <g class="nodes">
            <circle cx="100" cy="100" r="6" fill="#2a9e69" />
            <circle cx="400" cy="200" r="8" fill="#2a9e69" />
            <circle cx="700" cy="250" r="7" fill="#2a9e69" />
            <circle cx="950" cy="400" r="6" fill="#2a9e69" />
            <circle cx="200" cy="400" r="7" fill="#95b746" />
            <circle cx="500" cy="350" r="8" fill="#95b746" />
            <circle cx="800" cy="350" r="6" fill="#95b746" />
            <circle cx="300" cy="150" r="7" fill="#2a9e69" />
            <circle cx="600" cy="150" r="6" fill="#2a9e69" />
            <circle cx="150" cy="300" r="8" fill="#95b746" />
            <circle cx="450" cy="250" r="6" fill="#95b746" />
            <circle cx="750" cy="200" r="7" fill="#2a9e69" />
            <circle cx="200" cy="200" r="6" fill="#95b746" />
            <circle cx="500" cy="200" r="8" fill="#95b746" />
            
            <!-- Animated data packets -->
            <circle cx="100" cy="100" r="3" fill="#ffffff">
                <animate attributeName="cx" from="100" to="400" dur="4s" begin="0s" repeatCount="indefinite" />
                <animate attributeName="cy" from="100" to="200" dur="4s" begin="0s" repeatCount="indefinite" />
                <animate attributeName="opacity" from="1" to="0" dur="4s" begin="0s" repeatCount="indefinite" />
            </circle>
            <circle cx="400" cy="200" r="3" fill="#ffffff">
                <animate attributeName="cx" from="400" to="700" dur="3.5s" begin="1s" repeatCount="indefinite" />
                <animate attributeName="cy" from="200" to="250" dur="3.5s" begin="1s" repeatCount="indefinite" />
                <animate attributeName="opacity" from="1" to="0" dur="3.5s" begin="1s" repeatCount="indefinite" />
            </circle>
            <circle cx="700" cy="250" r="3" fill="#ffffff">
                <animate attributeName="cx" from="700" to="950" dur="3s" begin="2s" repeatCount="indefinite" />
                <animate attributeName="cy" from="250" to="400" dur="3s" begin="2s" repeatCount="indefinite" />
                <animate attributeName="opacity" from="1" to="0" dur="3s" begin="2s" repeatCount="indefinite" />
            </circle>
            <circle cx="200" cy="400" r="3" fill="#ffffff">
                <animate attributeName="cx" from="200" to="500" dur="4.5s" begin="0.5s" repeatCount="indefinite" />
                <animate attributeName="cy" from="400" to="350" dur="4.5s" begin="0.5s" repeatCount="indefinite" />
                <animate attributeName="opacity" from="1" to="0" dur="4.5s" begin="0.5s" repeatCount="indefinite" />
            </circle>
            <circle cx="300" cy="150" r="3" fill="#ffffff">
                <animate attributeName="cx" from="300" to="600" dur="5s" begin="1.5s" repeatCount="indefinite" />
                <animate attributeName="cy" from="150" to="150" dur="5s" begin="1.5s" repeatCount="indefinite" />
                <animate attributeName="opacity" from="1" to="0" dur="5s" begin="1.5s" repeatCount="indefinite" />
            </circle>
            <circle cx="150" cy="300" r="3" fill="#ffffff">
                <animate attributeName="cx" from="150" to="450" dur="4s" begin="2.5s" repeatCount="indefinite" />
                <animate attributeName="cy" from="300" to="250" dur="4s" begin="2.5s" repeatCount="indefinite" />
                <animate attributeName="opacity" from="1" to="0" dur="4s" begin="2.5s" repeatCount="indefinite" />
            </circle>
            <circle cx="450" cy="250" r="3" fill="#ffffff">
                <animate attributeName="cx" from="450" to="750" dur="3.8s" begin="1.8s" repeatCount="indefinite" />
                <animate attributeName="cy" from="250" to="200" dur="3.8s" begin="1.8s" repeatCount="indefinite" />
                <animate attributeName="opacity" from="1" to="0" dur="3.8s" begin="1.8s" repeatCount="indefinite" />
            </circle>
        </g>
        
        <!-- Additional decorative elements -->
        <g class="database-icons">
            <!-- Database symbol 1 -->
            <g transform="translate(850, 120)">
                <ellipse cx="0" cy="-10" rx="12" ry="5" fill="rgba(42, 158, 105, 0.3)" stroke="rgba(42, 158, 105, 0.6)" stroke-width="1"/>
                <path d="M-12,-10 L-12,10 C-12,16 12,16 12,10 L12,-10" fill="none" stroke="rgba(42, 158, 105, 0.6)" stroke-width="1"/>
                <ellipse cx="0" cy="10" rx="12" ry="5" fill="rgba(42, 158, 105, 0.3)" stroke="rgba(42, 158, 105, 0.6)" stroke-width="1"/>
                <animate attributeName="opacity" values="0.7;1;0.7" dur="5s" repeatCount="indefinite" />
            </g>
            
            <!-- Database symbol 2 -->
            <g transform="translate(100, 430)">
                <ellipse cx="0" cy="-10" rx="12" ry="5" fill="rgba(149, 183, 70, 0.3)" stroke="rgba(149, 183, 70, 0.6)" stroke-width="1"/>
                <path d="M-12,-10 L-12,10 C-12,16 12,16 12,10 L12,-10" fill="none" stroke="rgba(149, 183, 70, 0.6)" stroke-width="1"/>
                <ellipse cx="0" cy="10" rx="12" ry="5" fill="rgba(149, 183, 70, 0.3)" stroke="rgba(149, 183, 70, 0.6)" stroke-width="1"/>
                <animate attributeName="opacity" values="0.8;1;0.8" dur="4s" repeatCount="indefinite" />
            </g>
        </g>
    </g>
</svg>